<?xml version="1.0" encoding="UTF-8" standalone="no"?>
<!-- Created with Inkscape (http://www.inkscape.org/) -->

<svg
   width="210mm"
   height="297mm"
   viewBox="0 0 210 297"
   version="1.1"
   id="svg1159"
   xml:space="preserve"
   inkscape:version="1.2.2 (732a01da63, 2022-12-09)"
   sodipodi:docname="logo.svg"
   xmlns:inkscape="http://www.inkscape.org/namespaces/inkscape"
   xmlns:sodipodi="http://sodipodi.sourceforge.net/DTD/sodipodi-0.dtd"
   xmlns="http://www.w3.org/2000/svg"
   xmlns:svg="http://www.w3.org/2000/svg"><sodipodi:namedview
     id="namedview1161"
     pagecolor="#ffffff"
     bordercolor="#000000"
     borderopacity="0.25"
     inkscape:showpageshadow="2"
     inkscape:pageopacity="0.0"
     inkscape:pagecheckerboard="0"
     inkscape:deskcolor="#d1d1d1"
     inkscape:document-units="mm"
     showgrid="false"
     inkscape:zoom="0.41386281"
     inkscape:cx="146.18371"
     inkscape:cy="823.94453"
     inkscape:window-width="1600"
     inkscape:window-height="837"
     inkscape:window-x="-8"
     inkscape:window-y="-8"
     inkscape:window-maximized="1"
     inkscape:current-layer="layer1" /><defs
     id="defs1156" /><g
     inkscape:label="Capa 1"
     inkscape:groupmode="layer"
     id="layer1"><path
       style="fill:#000000;stroke-width:0.699439"
       d="m 76.535736,206.9034 c -7.317913,-0.33153 -14.566464,-0.9553 -16.107889,-1.38615 -3.633504,-1.01563 -7.646954,-5.18606 -8.627104,-8.96455 -0.622,-2.39778 -0.4382,-5.11906 1.02478,-15.17278 0.98049,-6.73802 1.67803,-12.31477 1.55008,-12.39278 -0.12794,-0.078 -2.39511,-0.70431 -5.03813,-1.3918 -6.16191,-1.60281 -13.38678,-5.09051 -13.38678,-6.46227 0,-1.40929 1.51748,-2.90532 5.25036,-5.17616 l 3.09376,-1.88205 -3.38587,-3.64126 c -5.01551,-5.39383 -8.47807,-10.49516 -8.24884,-12.15284 0.23407,-1.69263 2.36673,-2.32379 8.27761,-2.44973 l 3.95726,-0.0843 -2.07988,-4.27699 c -2.94832,-6.0628 -4.60065,-10.62048 -6.26134,-17.27093 -1.3474,-5.39583 -1.36717,-5.84816 -0.2913,-6.66479 0.93445,-0.70928 2.28906,-0.5594 7.11461,0.78717 3.27822,0.91479 6.54589,1.90007 7.26149,2.18951 1.23122,0.49799 1.27425,0.24353 0.80135,-4.7383 -0.472,-4.97231 -0.64775,-5.39605 -3.16605,-7.63364 -4.7658,-4.23455 -4.93133,-10.964327 -0.33887,-13.777037 1.76897,-1.083424 2.46249,-2.151308 3.08993,-4.757864 1.68473,-6.998825 7.992694,-14.220011 13.852454,-15.857913 1.700827,-0.475409 14.440931,-0.665695 35.770723,-0.534269 l 33.12902,0.204129 3.16672,1.932466 c 1.7417,1.062857 4.1765,3.126299 5.41068,4.585427 2.55168,3.016776 5.47917,9.111438 5.48916,11.427735 0.004,0.913848 0.56058,1.737853 1.34956,1.997793 0.73856,0.243331 2.16196,1.452918 3.1631,2.687971 1.5809,1.950265 1.77671,2.715946 1.48913,5.822752 -0.28672,3.097481 -0.70455,3.914134 -3.11567,6.089644 -2.65419,2.394826 -2.80751,2.759746 -3.27494,7.794896 -0.46393,4.99741 -0.42019,5.25406 0.8107,4.75621 0.71559,-0.28944 3.98326,-1.27472 7.26148,-2.18951 4.82556,-1.34657 6.18017,-1.49645 7.11462,-0.78717 1.07587,0.81663 1.0561,1.26896 -0.2913,6.66479 -1.6607,6.65045 -3.31302,11.20813 -6.26134,17.27092 l -2.07989,4.27699 3.95726,0.0843 c 5.91089,0.12594 8.04355,0.7571 8.27761,2.44973 0.22923,1.65768 -3.23333,6.75901 -8.24883,12.15284 l -3.38587,3.64126 3.09376,1.88205 c 3.72769,2.26769 5.25035,3.76675 5.25035,5.16898 0,1.35003 -7.12827,4.85021 -13.16541,6.46458 -2.57599,0.68884 -4.68362,1.49108 -4.68362,1.78274 0,0.29166 0.7785,5.8546 1.72999,12.36208 1.95606,13.37796 1.74608,15.71024 -1.79087,19.89187 -3.40657,4.02749 -5.93754,4.57899 -24.65316,5.37198 -18.71218,0.79285 -24.520461,0.78016 -43.854594,-0.0957 z m 50.972094,-4.8968 c 12.0642,-0.79888 13.852,-1.46437 15.58219,-5.80034 0.80478,-2.01682 0.60531,-4.48619 -1.68296,-20.83504 -1.42778,-10.20087 -3.06811,-19.52149 -3.64519,-20.71249 -1.50339,-3.10278 -4.94481,-6.70144 -7.94194,-8.30483 l -2.58416,-1.38246 -0.72667,1.97938 c -1.66557,4.53688 -1.50035,5.42605 1.38819,7.47083 4.17757,2.9573 4.89327,5.12759 6.64911,20.16285 0.86965,7.44688 1.59294,14.12564 1.60732,14.84168 0.0143,0.71605 -0.87687,2.23927 -1.98056,3.38494 l -2.00669,2.08305 H 99.940689 c -31.324583,0 -32.27523,-0.0404 -33.994036,-1.44383 -0.97254,-0.79411 -1.940229,-2.00629 -2.15042,-2.69374 -0.637711,-2.08569 2.812324,-29.66786 4.012186,-32.07641 0.851628,-1.70953 3.878738,-4.64509 6.462296,-6.26685 0.526399,-0.33044 -1.590982,-6.15829 -2.346824,-6.45937 -2.223724,-0.88579 -8.369619,4.6467 -10.187259,9.17049 -0.581457,1.44714 -2.199302,10.82625 -3.595212,20.84247 -2.426937,17.41421 -2.488487,18.31912 -1.406257,20.67492 1.704649,3.71068 4.260005,4.69889 13.781768,5.32967 12.549268,0.83135 44.667469,0.85112 56.990899,0.0351 z M 72.683359,182.95779 c 1.060994,-5.64881 1.669905,-7.33093 3.256313,-8.99563 1.65166,-1.73317 2.328423,-1.98405 4.407339,-1.63385 3.007941,0.50669 4.816786,2.11206 5.380232,4.77501 0.234459,1.1081 0.832811,2.36495 1.329673,2.79299 0.599556,0.51652 5.125653,0.71284 13.457664,0.58371 l 12.55427,-0.19456 0.97676,-3.04363 c 0.96685,-3.01275 3.45847,-5.1515 6.00147,-5.1515 2.05674,0 4.95353,2.06572 5.69896,4.06396 0.5912,1.5848 2.88231,12.29308 2.88231,13.47145 0,0.15405 0.61785,0.28009 1.373,0.28009 1.72934,0 1.72995,-0.58131 0.0161,-15.47535 -1.40272,-12.18997 -2.40535,-15.41708 -5.20074,-16.73919 -0.92738,-0.43862 -1.76206,-0.66523 -1.85486,-0.50358 -0.0928,0.16165 -1.20311,2.45184 -2.46737,5.08929 -2.9698,6.19554 -5.50745,7.95691 -11.3746,7.89507 -2.29668,-0.0242 -5.28292,-0.52591 -6.63609,-1.1149 -2.1796,-0.9487 -2.727881,-0.95013 -4.805511,-0.0125 -1.28986,0.5821 -4.3977,1.07165 -6.90632,1.08789 -6.258396,0.0405 -8.582898,-1.53085 -11.869975,-8.02416 -1.387402,-2.74069 -2.737398,-4.97286 -2.999992,-4.9604 -0.840495,0.0399 -2.606381,1.70506 -3.759058,3.54464 -0.726911,1.16009 -1.609213,6.02873 -2.518268,13.89609 -1.788701,15.4802 -1.79054,15.31714 0.172665,15.31714 1.453051,0 1.686688,-0.56247 2.886068,-6.94804 z m 11.322415,4.94855 c 0,-1.09972 -0.646212,-3.98583 -1.436026,-6.41358 -1.082243,-3.32662 -1.755533,-4.41409 -2.732925,-4.41409 -0.783236,0 -1.435959,0.63506 -1.647998,1.6034 -0.193105,0.88186 -0.673709,3.20679 -1.06801,5.16649 -0.394301,1.9597 -0.880862,4.12429 -1.081245,4.81018 -0.319092,1.09223 0.152887,1.24709 3.800935,1.24709 4.106354,0 4.165269,-0.0283 4.165269,-1.99949 z m 13.730025,-0.49468 v -2.49417 h -4.80551 -4.805508 v 2.49417 2.49417 h 4.805508 4.80551 z m 13.730021,-0.0326 v -2.52673 l -4.63388,0.21072 -4.63389,0.21071 -0.21512,2.31602 -0.21512,2.31601 h 4.849 4.84901 z m 12.31019,0.92334 c -0.0257,-0.88187 -0.56639,-3.68781 -1.20138,-6.23543 -0.92555,-3.71328 -1.42082,-4.63203 -2.49703,-4.63203 -1.03494,0 -1.69917,1.06115 -2.89943,4.63203 -0.85632,2.54762 -1.56513,5.35356 -1.57514,6.23543 -0.0169,1.48672 0.28152,1.60339 4.1008,1.60339 3.82778,0 4.1157,-0.11337 4.07218,-1.60339 z M 95.573849,164.89441 c 2.15718,-0.78059 2.16195,-0.79371 2.16195,-5.95574 v -5.17342 l -3.9924,-0.43316 c -6.553865,-0.71108 -9.214086,-1.92093 -10.745858,-4.88714 -1.297645,-2.51284 -1.310646,-2.91725 -0.326338,-10.15183 l 1.025145,-7.53474 h -1.97344 c -2.288564,0 -6.641648,4.04952 -6.641648,6.17849 0,5.38849 7.99845,25.34875 11.04548,27.56418 1.85681,1.35003 6.292939,1.53476 9.447109,0.39337 z m 17.813841,-0.33799 c 3.10398,-2.25682 10.43515,-21.08198 10.43515,-26.79562 0,-3.83465 -2.92644,-7.00242 -6.46896,-7.00242 -1.35055,0 -2.45555,0.30784 -2.45555,0.68408 0,0.37624 0.48657,3.87309 1.08128,7.77077 0.98528,6.45753 0.98488,7.2802 -0.005,9.2664 -1.14809,2.30463 -4.47075,3.74233 -10.99654,4.75817 l -3.12346,0.48625 v 4.94182 c 0,4.89383 0.0217,4.95161 2.23113,5.94846 2.98693,1.34764 7.40646,1.32012 9.30176,-0.0579 z m -58.227297,-1.19568 c -0.0126,-0.91056 -6.28827,-5.5228 -7.51461,-5.5228 -0.37284,0 -1.63652,0.60516 -2.80819,1.3448 l -2.13031,1.34482 2.97184,1.12878 c 6.51243,2.47359 9.49936,3.01054 9.48127,1.7044 z m 94.640877,-0.53713 c 1.63935,-0.44006 3.72471,-1.15204 4.63412,-1.58216 l 1.65349,-0.78203 -2.07634,-1.31075 c -2.72438,-1.71983 -2.98768,-1.68522 -6.55334,0.86136 -3.03939,2.17071 -4.20436,4.68789 -1.83995,3.97561 0.66076,-0.19905 2.54266,-0.72197 4.18202,-1.16203 z m -92.907337,-7.85957 c 0.38216,-1.80614 0.0793,-2.59654 -1.84317,-4.81018 -1.26526,-1.4569 -3.32718,-4.13566 -4.58205,-5.95278 -2.48458,-3.59784 -5.11722,-4.59219 -9.55121,-3.60749 l -2.24146,0.49778 4.13594,4.75493 c 3.85578,4.43285 11.78341,11.27902 13.06072,11.27902 0.31016,0 0.76972,-0.97258 1.02123,-2.16128 z m 91.366477,-1.45699 c 2.40926,-1.99004 6.08035,-5.59768 8.15798,-8.01697 l 3.7775,-4.39871 -2.22537,-0.49778 c -4.75284,-1.06313 -6.96717,-0.0595 -10.31673,4.67593 -1.70315,2.40782 -3.7117,4.95566 -4.46344,5.66185 -1.1798,1.10834 -1.26749,1.61987 -0.64095,3.73897 0.39921,1.35024 0.86189,2.45498 1.02819,2.45498 0.16629,0 2.27357,-1.62822 4.68282,-3.61827 z m -39.65375,-5.79366 c 1.63685,-0.42048 3.14286,-1.21564 3.34669,-1.76701 0.45035,-1.21825 -4.51347,-34.91589 -5.43892,-36.9229 -0.36145,-0.78388 -1.75963,-2.42857 -3.10704,-3.65486 -2.50394,-2.27882 -2.7098,-4.12404 -0.55583,-4.98204 1.75324,-0.698384 5.67952,2.43755 7.23918,5.78197 4.48256,9.61203 16.04163,11.48247 23.0919,3.73665 2.61566,-2.87372 5.13408,-8.52147 4.22202,-9.46823 -0.2025,-0.2102 -1.4877,-0.570774 -2.856,-0.801264 -2.12678,-0.35827 -2.48781,-0.22296 -2.48781,0.932364 0,2.38845 -2.44097,6.16964 -4.84783,7.50957 -5.73096,3.19048 -12.64924,-0.0373 -13.63375,-6.36085 -0.32053,-2.058794 -0.7675,-2.722164 -1.95258,-2.897914 -2.20224,-0.326598 -3.20633,-2.566213 -1.80343,-4.022498 0.60541,-0.628434 1.6088,-0.991035 2.22977,-0.80578 1.40793,0.42003 30.58511,1.561193 33.39459,1.306112 2.23172,-0.202623 4.46226,-2.420405 4.46226,-4.436731 0,-2.721303 -1.83775,-3.201746 -13.66105,-3.571409 l -11.39624,-0.35631 v -1.781549 -1.78155 l 9.43939,-0.198265 c 5.19167,-0.109045 9.43939,-0.301702 9.43939,-0.428125 0,-0.126424 -0.35792,-1.31992 -0.79539,-2.652215 -1.31956,-4.018766 -4.56616,-8.340182 -7.69646,-10.244454 l -2.95605,-1.798267 H 99.186019 c -27.413766,0 -33.42466,0.175641 -35.002835,1.022796 -2.52901,1.357559 -6.846511,6.382497 -8.047411,9.366002 -1.83802,4.566358 -1.92869,4.515716 8.476345,4.734263 l 9.43939,0.198265 v 1.78155 1.781549 l -11.396232,0.35631 c -11.823313,0.369663 -13.661063,0.850106 -13.661063,3.571409 0,0.69247 0.57095,1.990951 1.26877,2.885514 1.22941,1.576013 1.58485,1.621428 11.455891,1.463728 5.602914,-0.08951 10.375562,-0.283646 10.605885,-0.431409 0.230321,-0.147762 4.371716,-0.340655 9.203098,-0.42865 6.777463,-0.123438 8.915615,0.06052 9.358982,0.805186 1.03346,1.735805 -0.559819,3.536138 -3.129463,3.536138 -2.09186,0 -2.3786,0.21903 -2.3786,1.816944 0,6.80746 -8.337913,11.1936 -14.211569,7.47597 -2.385631,-1.50995 -4.323961,-4.74332 -4.323961,-7.2129 0,-1.387994 -0.265588,-1.509134 -2.487813,-1.134794 -3.167057,0.533494 -3.255526,0.647464 -2.735652,3.524064 1.543117,8.53847 12.770315,14.14225 20.344302,10.15436 3.495915,-1.84069 4.491419,-2.93497 6.449537,-7.08949 1.863745,-3.95429 5.405039,-6.727904 7.516289,-5.88691 1.77738,0.70799 1.3034,3.10804 -0.94151,4.76737 -1.1335,0.83783 -2.38042,2.14305 -2.77093,2.9005 -0.39052,0.75745 -1.92895,9.47052 -3.418741,19.36238 -2.569008,17.0576 -2.647387,18.04886 -1.519684,19.21946 2.424668,2.51692 13.613386,3.1076 21.327616,1.12595 z M 89.254264,85.63623 C 87.857688,84.530723 85.907306,73.047888 86.9023,71.789089 c 1.027774,-1.30027 3.133819,-1.088333 3.540699,0.35631 0.66308,2.354307 1.80079,9.704891 1.80079,11.634709 0,2.207205 -1.42686,3.093105 -2.989525,1.856122 z m 17.451126,0.2711 c -0.85523,-0.561771 -0.85523,-1.510854 0,-7.219725 1.07383,-7.168076 2.34823,-9.173436 4.4459,-6.995958 0.98466,1.022125 0.98703,1.703557 0.0258,7.420084 -1.16189,6.909858 -2.10827,8.348052 -4.47171,6.795599 z m -46.040654,61.95709 c 0,-0.39021 -1.234438,-4.95584 -2.743196,-10.14584 -1.508757,-5.19001 -3.246537,-12.06727 -3.861727,-15.28282 -1.0854,-5.67326 -1.19225,-5.877 -3.60694,-6.8782 -4.46687,-1.85208 -9.69667,-3.26447 -9.69667,-2.61873 0,0.34745 0.80659,2.97577 1.79241,5.8407 2.70255,7.85392 7.27941,16.60885 12.31602,23.55893 4.17974,5.76766 5.800103,7.31143 5.800103,5.52596 z m 83.766484,-6.06188 c 4.6806,-6.4688 9.29098,-15.37037 11.92426,-23.02301 0.98583,-2.86493 1.79242,-5.49325 1.79242,-5.8407 0,-0.64574 -5.2298,0.76665 -9.69667,2.61873 -2.41466,1.00119 -2.52155,1.205 -3.60683,6.87764 -0.61514,3.21523 -2.32726,10.00443 -3.80474,15.08712 -3.66446,12.60622 -3.12525,13.28672 3.39156,4.28022 z m -76.645489,0.32442 c 3.023901,-1.38851 3.176522,-1.59733 3.176522,-4.34619 0,-6.152 3.35738,-10.04511 9.825715,-11.39355 l 3.740128,-0.77971 0.650739,-4.19445 c 0.357907,-2.30695 0.472078,-4.18963 0.253715,-4.18372 -0.218364,0.006 -1.632726,0.47284 -3.143029,1.03765 -5.740332,2.1467 -13.147218,0.94107 -18.045712,-2.93734 -3.083832,-2.44165 -6.009371,-7.31421 -7.021776,-11.69496 -0.85259,-3.689214 -2.23232,-4.942994 -1.71589,-1.55926 0.16451,1.07784 0.64145,4.68548 1.05989,8.01698 1.03389,8.23165 2.993251,17.41494 5.585584,26.17894 1.18992,4.02281 2.229663,7.31419 2.310541,7.31419 0.08088,0 1.576486,-0.65637 3.323573,-1.45858 z m 70.097809,-9.94334 c 2.02225,-7.25908 4.41985,-20.18933 5.39175,-29.07776 0.45191,-4.132834 -1.06032,-3.618024 -1.75349,0.59694 -1.09124,6.63547 -7.05096,13.11087 -13.81519,15.0106 -3.59167,1.00872 -9.83155,0.45941 -12.78389,-1.12539 l -2.25773,-1.21194 0.49877,4.16252 c 0.27432,2.28939 0.6227,4.37299 0.77418,4.63023 0.15148,0.25723 1.81635,0.6877 3.6997,0.95658 6.17342,0.88137 10.13862,4.88643 10.88256,10.99195 0.42351,3.47584 0.62105,3.78292 3.1974,4.97043 3.26774,1.50619 2.75999,2.32178 6.16594,-9.90416 z M 78.062511,104.31287 c 1.630763,-0.7713 3.499315,-3.82255 2.930282,-4.785014 -0.448765,-0.75903 -10.03054,-0.0893 -10.03054,0.701164 0,0.93549 3.814587,4.87505 4.720398,4.87505 0.388853,0 1.45979,-0.35604 2.37986,-0.7912 z m 47.991459,-1.18509 c 0.66076,-0.6023 1.20137,-1.64938 1.20137,-2.32686 0,-1.012954 -0.82321,-1.290564 -4.63388,-1.562684 -2.54863,-0.182 -4.76863,-0.2131 -4.93332,-0.0691 -0.74694,0.65304 1.17958,4.212314 2.7136,5.013424 1.87934,0.98145 3.81456,0.62032 5.65223,-1.05476 z"
       id="path1191" /></g></svg>
